<?xml version="1.0" encoding="UTF-8"?>
<!DOCTYPE svg PUBLIC "-//W3C//DTD SVG 1.1//EN" "http://www.w3.org/Graphics/SVG/1.1/DTD/svg11.dtd">
<!-- Creator: CorelDRAW Home & Student X6 -->
<svg xmlns="http://www.w3.org/2000/svg" xml:space="preserve" width="1476px" height="1476px" version="1.1" style="shape-rendering:geometricPrecision; text-rendering:geometricPrecision; image-rendering:optimizeQuality; fill-rule:evenodd; clip-rule:evenodd"
viewBox="0 0 154691297 154691297"
 xmlns:xlink="http://www.w3.org/1999/xlink">
 <defs>
  <style type="text/css">
   <![CDATA[
    .fil1 {fill:none}
    .fil0 {fill:white}
   ]]>
  </style>
 </defs>
 <g id="Warstwa_x0020_1">
  <metadata id="CorelCorpID_0Corel-Layer"/>
  <path class="fil0" d="M123774075 56575062c0,-8380927 -2811917,-15235608 -7480252,-20605128 749448,-1945645 3245176,-9755947 -721851,-20323219 0,0 -6105232,-2062592 -20006906,7872178 -5809463,-1705069 -12038448,-2557604 -18226224,-2585077 -6187652,27473 -12416637,880008 -18219417,2585077 -13908604,-9934770 -20020643,-7872178 -20020643,-7872178 -3967027,10567272 -1464370,18377574 -715045,20323219 -4661406,5369521 -7493989,12224201 -7493989,20605128 0,29425997 16995623,36012381 33159255,37951220 0,0 -11619173,7198343 -11619173,19298791 -4145727,1966312 -21691309,7989001 -28188343,-3746994 0,0 -3843398,-7370360 -11151634,-7913388 0,0 -7108993,-96280 -501942,4668212 0,0 4771422,2365168 8085281,11234177 0,0 3685118,18686956 31522869,10292169 281909,144420 103210,9041026 103210,10862918l50092878 0c0,0 82543,-17854964 82543,-23533868 0,-13963674 -9322935,-18851919 -11942292,-21223893 16218702,-1897505 33241675,-8387733 33241675,-37889344z"/>
  <rect class="fil1" x="6" width="154691289" height="154691296"/>
 </g>
</svg>
