<?xml version="1.0" encoding="UTF-8"?>
<!DOCTYPE svg PUBLIC "-//W3C//DTD SVG 1.1//EN" "http://www.w3.org/Graphics/SVG/1.1/DTD/svg11.dtd">
<!-- Creator: CorelDRAW Home & Student X6 -->
<svg xmlns="http://www.w3.org/2000/svg" xml:space="preserve" width="889px" height="200px" version="1.1" style="shape-rendering:geometricPrecision; text-rendering:geometricPrecision; image-rendering:optimizeQuality; fill-rule:evenodd; clip-rule:evenodd"
viewBox="0 0 88955380 20017727"
 xmlns:xlink="http://www.w3.org/1999/xlink">
 <defs>
  <style type="text/css">
   <![CDATA[
    .fil0 {fill:black}
    .fil2 {fill:url(#id0)}
    .fil1 {fill:url(#id1)}
    .fil3 {fill:url(#id2);fill-rule:nonzero}
   ]]>
  </style>
  <linearGradient id="id0" gradientUnits="userSpaceOnUse" x1="4.44777e+007" y1="772432" x2="4.44777e+007" y2="1.92452e+007">
   <stop offset="0" style="stop-color:#FFFF99"/>
   <stop offset="0.411765" style="stop-color:#E4B04D"/>
   <stop offset="1" style="stop-color:#C96100"/>
  </linearGradient>
  <linearGradient id="id1" gradientUnits="userSpaceOnUse" x1="4.44777e+007" y1="866637" x2="4.44777e+007" y2="1.91507e+007">
   <stop offset="0" style="stop-color:white"/>
   <stop offset="0.380392" style="stop-color:#8F4C00"/>
   <stop offset="1" style="stop-color:#B55400"/>
  </linearGradient>
  <linearGradient id="id2" gradientUnits="userSpaceOnUse" x1="4.44777e+007" y1="1.9133e+007" x2="4.44777e+007" y2="884842">
   <stop offset="0" style="stop-color:#FF9100"/>
   <stop offset="0.439216" style="stop-color:#FFC600"/>
   <stop offset="1" style="stop-color:#FFFB00"/>
  </linearGradient>
 </defs>
 <g id="Warstwa_x0020_1">
  <metadata id="CorelCorpID_0Corel-Layer"/>
  <path class="fil0" d="M44683715 13335489c-380177,311129 -814321,568292 -1138883,759883 -519864,306828 -1587107,954008 -2174311,954008 -7305,0 -14611,-59 -21916,-295l-2514838 -62332c-30105,-707 -59799,-2946 -89727,-6775 -1016399,-129436 -1904657,-622553 -2670256,-1286229 -464838,-402919 -871291,-868876 -1168811,-1401937 -205318,343650 -462069,656959 -745037,939986 -620903,620844 -1360226,1108777 -2144853,1497261 -526109,260462 -1273149,615660 -1870369,491467l-1616623 -266000c-121954,-20090 -231771,-61625 -334872,-128729 -119479,-66927 -248621,-121541 -372283,-180338 -332339,-157833 -665796,-313191 -999078,-468903 -730426,-341353 -1340960,-918364 -1340960,-1777519 0,-46837 3594,-92378 10958,-138686l261169 -1643959c-111761,231594 -232007,459595 -360441,683883 -662438,1156498 -1541624,2166298 -2713499,2825143 -795880,447517 -1681429,778501 -2605037,778501 -500069,0 -1031481,-94264 -1534083,-210738l0 2028909c0,298698 35113,699555 204906,954302 247442,371104 532178,830817 474088,1295891 -41123,329687 -250977,597337 -561282,715992l-706624 270183c-166434,63628 -333399,75882 -507374,37234 -760001,-168909 -1531020,-201960 -2302038,-91789 -259166,36999 -506255,-35643 -703973,-207203 -198131,-171855 -304707,-405334 -304707,-667623l0 -5593786c-137154,167082 -290214,322264 -451111,465486 -562990,501247 -1262309,902222 -2038924,878008 -48781,-1532 -95913,-6893 -143811,-16378l-1572908 -310894 -975217 290804c-172738,51550 -342295,50608 -514503,-2828l-602758 -187055c-260404,-80772 -457650,-262996 -558748,-516212 -100980,-252862 -83541,-521514 49371,-759176 454115,-811846 901043,-1627699 1346498,-2444317 431021,-790283 784510,-1651206 929499,-2543589 -12313,-491291 -18794,-982699 -19029,-1474108 -24332,-367982 -108050,-725124 -246794,-1066771 -2533,-6245 -5008,-12431 -7364,-18676 -151117,-397734 -380590,-836767 -727775,-1097465 -66809,-39061 -140924,-71523 -210326,-105281 -177157,-86251 -355669,-169675 -534534,-252332 -184227,-10428 -642643,82068 -809313,115885 -214509,43538 -496829,220872 -677167,343238 -5067,3476 -10192,6775 -15318,10133 -233421,151411 -551207,395790 -655958,662497 -2710,6834 -5479,13668 -8307,20443 -190648,451641 -387483,900808 -571061,1355395 -33110,153591 -54732,310304 -81302,465074 -70992,413170 -139510,826752 -207675,1240393l365567 4610674c1885,23271 2769,46425 2769,69814 0,597514 -302763,1102944 -853912,1347912 -116062,51609 -231889,76177 -358909,76177l-2355474 0c-284205,0 -536420,-126019 -706978,-353430 -96974,-129259 -194831,-260639 -267238,-405688 -18617,-37352 -34288,-75116 -47485,-114707 -51845,-155064 -69107,-320202 -45600,-482041l0 -8399605 -535713 -2182382c-17203,-70109 -25451,-138509 -25451,-210679 0,-547554 350956,-950296 820978,-1185307 120658,-60329 242670,-90434 377585,-93144 941105,-18794 1882152,-41712 2823493,-41712 427368,0 788928,299523 868346,719468l133265 704445c465074,-301055 928557,-602817 1389035,-902929 527288,-359911 1130929,-520984 1766090,-520984 242493,0 484928,0 727421,0 374109,0 748218,0 1122327,0 693663,0 1355984,509613 1853048,949000 434143,383653 854618,806073 1183835,1274446 688538,925788 793524,2555607 818739,3680527 27808,1242101 -902222,2818898 -1657392,3925554 39885,9367 78651,16909 115120,21681 131851,-2887 269594,-23743 399973,-39768 319024,-39355 636987,-87253 954597,-136565 151941,-23566 301114,-6893 436500,42242l0 -6338882 -453703 -1893758c-11724,-48840 -19029,-97092 -22388,-147169 -38412,-577542 286680,-1059996 774553,-1342846 198661,-115178 416881,-148171 640699,-96856l867226 198838c247796,-55675 507374,-78357 759353,-94617 238605,-15377 499362,-35526 730780,-96974 271067,-71935 543254,-17380 765598,153650 222286,171030 344887,420004 344887,700497l0 3005c161839,-120893 322382,-243495 481747,-367629 335873,-261700 733961,-509260 1162036,-571945 165492,-24273 335461,-22564 502367,-24980 351309,-5126 702736,-5302 1054104,-5302 1193909,0 2251548,728423 3079301,1525305 473911,456236 919719,979282 1240805,1563894 4595,-20915 9250,-41771 14022,-62626 205200,-905521 955363,-1631293 1675302,-2166298 629741,-467960 1465153,-984997 2272934,-984997 225290,0 451052,7482 676283,1296 76471,-17439 155241,-24567 233597,-21327 404274,16909 795409,113941 1165630,274013 504193,50195 991831,340528 1395928,627914 411815,271244 850966,604054 1137115,1009447 238310,337582 211681,792522 -64453,1100058l-914476 1018402c-172856,192475 -403920,294751 -662674,293278 -258754,-1473 -488581,-106459 -659257,-300996 -486165,-554212 -1059465,-883663 -1808862,-883663 -244968,0 -494001,41476 -702913,175979 -160131,119244 -200782,260757 -200958,454940 11429,55144 158127,156713 194655,180044 138803,83306 360323,199486 524637,207675 53612,2710 105104,9957 157303,22211 547495,128081 1094225,259991 1636713,407926 339703,92673 683707,186878 1010213,319966 6304,2533 12608,5185 18912,7954 607706,264233 1112194,655251 1474697,1179004 378587,-825220 1009506,-1537500 1680015,-2133895 1070129,-951769 2374385,-1737163 3850379,-1737163l1184659 0c734727,0 1412954,302528 2004636,718525 803245,564640 1352390,1348384 1352390,2357889 0,670569 -205083,1286111 -620609,1804443 -59268,78239 -123780,153768 -191886,226704 10192,-4890 20326,-9721 30518,-14493 291275,-137036 612007,-250388 937453,-250388 202372,0 400621,44127 581902,134679 209265,104515 358732,273070 437384,493412 225644,631979 -114118,1227962 -522162,1691563 -195362,222050 -420122,435498 -675223,588913 363858,126254 640286,385008 770901,736494l2674203 -6427667c-14964,-101451 -29516,-202962 -43243,-304649 -15789,-116946 -33876,-233715 -33876,-352075 0,-797884 622141,-1235974 1367060,-1257066 709629,-87489 1378607,-553917 1897529,-1020994 315312,-283734 782153,-304590 1121444,-50078 508435,381415 1018578,899570 1018578,1579919 0,547083 -338701,950709 -780975,1219655 28633,151882 61095,303117 89904,454881 65278,343827 141101,699378 164667,1049744l1780229 4502860c43538,-1497792 45306,-2996821 14434,-4494848l-262583 -1838319c-34465,-241197 25392,-469551 173681,-662851 148289,-193358 353253,-310245 595217,-339467 869819,-104986 1740697,-201548 2612107,-292571 244025,-25510 473970,45247 661496,203433 153355,129318 253275,294692 293808,484398 267532,-150704 535300,-301055 803127,-451346 7895,-4478 15907,-8778 23919,-13020 580488,-302645 1206576,-477681 1863476,-477681 485164,0 975394,71405 1451426,160661 747806,140158 1417314,477623 2009526,950296 710807,567291 1202039,1300250 1303903,2217790l62332 561164c4183,37175 5891,73938 5302,111349 -18853,1212703 -584317,2204298 -1498381,2975552 -430432,363210 -936216,667093 -1447714,931738 181399,88902 365920,172149 544255,249622 361089,156949 723297,312013 1090926,453173 110642,42537 241374,99271 360029,131675 147051,-20738 300466,-63451 443746,-95913 225055,-50961 449579,-104633 675871,-150056 25687,-5185 51374,-9250 76943,-12195 -145873,-416822 -225585,-852321 -225585,-1303608 0,-11488 236,-22918 707,-34406l62332 -1600362c1237,-31932 4124,-63392 8837,-95089 146639,-989887 605703,-1900533 1186368,-2705074 624497,-865282 1398579,-1590052 2331260,-2113569 50549,-28397 101746,-50902 156831,-68989 361384,-118713 722885,-237073 1085682,-351427 183755,-57913 371870,-127079 562165,-158717 33581,-5597 66986,-9250 100980,-10958 269359,-13433 538717,-27160 808076,-41417 127374,-6716 244791,11901 363858,57678l2701893 1039199c17203,6598 34053,13727 50608,21268 -38000,-496122 -78298,-992008 -119008,-1487894l-349306 -1203276c-67752,-233538 -40239,-470081 79594,-681703 120245,-212388 307476,-356788 543430,-419120l1101589 -290921c179808,-47485 355374,-39296 529939,24744 145991,53554 305061,120186 457650,161662 36763,-5126 73526,-10192 110289,-15259 273247,-37470 546730,-73585 820212,-109699 277135,-36586 542900,53554 740618,251213 309539,309597 487461,704327 487461,1144479 0,209855 -65749,398323 -168025,575303l-21916 2202295c166670,-112586 334342,-223700 502131,-334695 31461,-20856 63687,-39296 97563,-55969 858743,-422419 1795135,-714224 2759335,-714224 277607,0 555272,18440 822569,43126 775555,47132 1478173,487108 2056069,977102 533651,452584 1034603,992008 1331652,1632412 303117,653660 435322,1357751 435322,2076041 0,1048389 -266943,2037805 -860922,2907682 -97504,142868 -224112,282202 -355080,416705 51020,3888 101982,6893 152884,8778 228943,-65513 458534,-128493 687713,-193123 133089,-37588 261817,-43715 397911,-18971 599871,108934 954302,606999 954302,1201980 0,377585 -131557,733607 -378940,1011509 -335166,391077 -727245,772079 -1181773,1020994 -458829,251272 -1003202,387306 -1515466,479213 -98918,17792 -193123,18794 -292394,3299 -321086,-50137 -642231,-100214 -962845,-153473 -47426,-7836 -94912,-15730 -142338,-23919 -62391,16437 -124487,34406 -186819,51197 -276134,74351 -551620,151352 -826987,228648 -132735,37234 -261111,43302 -396732,18676 -244614,-44422 -483985,-119774 -718113,-202431 -156890,-55380 -284382,-144930 -389722,-273659 -229002,-279845 -386894,-607530 -386894,-975394 0,-229297 88902,-447988 247501,-612655 89079,-113647 168379,-236661 251036,-354903 233833,-334401 464661,-670804 695254,-1007444 189882,-277253 884547,-1340489 884547,-1641367l0 -2472479c-9957,-137802 -389132,-435439 -502602,-516271 -142633,-92378 -614894,-375464 -769133,-368336 -843955,38884 -1518235,334342 -2000335,1046622 -224642,331808 -426602,737378 -426602,1146600l0 4828600c16673,142103 2651,286031 -42537,422125 -187467,564286 -725890,721589 -1262132,724947l-1556648 61684c-11665,471 -23330,707 -34995,707 -478035,0 -898039,-216807 -1231084,-549793 -195362,-195420 -285737,-457297 -252332,-731604l30518 -251036c-315371,282614 -670510,528878 -1006089,742739 -670627,427427 -1682490,1039140 -2491037,1039140l-1371714 0c-1207872,0 -2211839,-695902 -2999590,-1553937 -16260,-17674 -32403,-35408 -48487,-53259 -229768,520984 -870643,805601 -1376015,1000668 -398500,163430 -966498,398677 -1395339,398677l-1267847 0c-1060761,0 -2072683,-251154 -3010666,-746569 -656193,-346537 -1272796,-833880 -1848158,-1300545 -4831,-3888 -9721,-7836 -14552,-11724l0 1071189c0,487108 -396615,883722 -883722,883722l-2431709 0c-100096,0 -197954,-15554 -290863,-47485 -93144,31814 -191296,47485 -291039,47485 -328804,0 -657666,20090 -985704,40003 -363858,22034 -728069,43126 -1092693,43126 -779031,0 -1171698,-676872 -1359401,-1338898 -4124,-14552 -8660,-30047 -13550,-46071l-3241317 75352c-6834,118 -13668,236 -20502,236 -18205,0 -45600,825 -74351,2887 -39768,119715 -82304,237073 -121365,353842 -185228,592860 -680584,952653 -1300722,952653 -436618,0 -873000,-31755 -1305494,-91436 -277489,-38295 -507080,-193417 -646237,-436559 -138744,-242493 -156183,-520395 -48840,-778324l13904 -33464zm31196167 -7477764c-325092,415232 -790637,707921 -1296185,911295 -218986,88078 -446574,87371 -665031,-2180l-1647082 -675282 -910116 0c-188410,0 -392196,233362 -497064,368394 -216983,279433 -408751,606646 -471260,959074l-57913 1798905c114236,727775 411991,2104143 1148368,2425288 132499,57795 274366,79947 418236,79947 114177,0 228648,-8307 342354,-17792 43892,-3653 87724,-7305 131616,-10605l2223740 -1539562c98447,-68164 200958,-112468 318022,-137507 306357,-65572 609945,-36586 871939,89020 14847,-795056 31107,-1590111 50785,-2385049 14140,-574596 41299,-1149193 41299,-1724025 0,-46602 -589,-93262 -1709,-139923zm-32420181 5118049l-4564132 0c107402,113882 220695,219458 315018,302351 211386,185758 737731,614953 1016575,633040 294221,13786 588441,27690 882603,42713 81715,4124 163312,5656 245027,10840 215216,-38295 429253,-94323 641818,-146109l1463091 -842836zm-17221393 -1542920c13433,-8660 27219,-16967 41299,-25039 237721,-135740 507433,-155182 762122,-54850 633982,249681 1153670,679406 1544806,1224191 165668,218927 486519,643703 711279,789341 455883,295517 1180948,415291 1730328,469198 538482,-192357 708686,-543195 708686,-1120148 0,-717347 -994011,-1079968 -1564837,-1252352 -985881,-127727 -2164943,-371694 -2977202,-964200 -219929,-160425 -411815,-344063 -575951,-548733 -2239,19147 -5126,38177 -8660,57265 -89492,485812 -214214,961431 -371870,1425326zm24243157 1012216l-612655 -1747649 -732370 1741051c442509,15907 905226,25274 1345026,6598zm11516553 -3927557c-45836,-62980 -131203,-150763 -172031,-190825 -35643,-35054 -80772,-79240 -125076,-116062 -7188,-825 -14375,-1767 -21563,-2769 -210326,-29163 -420239,-62450 -631096,-88078 -215923,32462 -431905,64806 -647827,97209 -1047682,343532 -1478232,1148014 -1629761,2196816l-100980 952299c219399,-14198 438621,-30223 657607,-49724 172326,-15377 361973,-26335 530410,-64924 296577,-67929 592153,-140748 891617,-195185 14434,-2592 28986,-4890 36645,-5538 155064,-41476 583492,-467312 701145,-593449 107991,-115885 456590,-518450 510909,-671099l0 -1268672zm-43444029 4279809c38707,187938 78239,375759 121836,562637 17380,74468 32580,158363 58502,229886 2651,7247 5243,14434 7718,21681 20502,60034 77355,204376 122837,277194 147523,36822 331455,42301 474854,42301 425483,0 894798,-75352 1212821,-373284 745685,-725359 1248641,-1584514 1493432,-2596200l227352 -1537795c-53082,-506550 -99389,-1017341 -187585,-1519001 -51786,-294397 -175448,-843778 -382652,-1053810 -177746,-168909 -381120,-327684 -604584,-431198 -175213,-81185 -360794,-115591 -553328,-115591 -379824,0 -719880,134679 -1030951,346066 -347951,236366 -609003,537244 -781152,922017 -5185,11547 -10605,22977 -16260,34288 -59209,118419 -94087,366215 -112645,499244 -32698,234481 -65160,475855 -128493,704857 -7718,545492 -15495,1090926 -24214,1636359 -3653,230416 -4183,460891 -12608,691189 24803,553799 73290,1106420 115120,1659159zm19777413 -2693409l545669 -118242c589914,-157715 1563776,-491998 1785767,-1130988 6834,-98506 11017,-197188 11017,-295870 0,-587499 -177216,-835825 -740854,-923549 -189824,74645 -674810,508317 -808959,636869 -159718,152943 -714814,730073 -714814,951769 0,185405 -26512,370751 -46955,554742 -11901,107343 -24155,216453 -30871,325269z"/>
  <path class="fil1" d="M76072298 10753016c18087,-1008092 37529,-2016242 62450,-3024098 14140,-573065 41417,-1158796 41417,-1731271 0,-354137 -35938,-737437 -60918,-1091220 -54909,-778559 -117771,-1556824 -181693,-2334677l-357554 -1231732c-45954,-158245 -28102,-311070 53023,-454469 81185,-143340 203020,-237309 362326,-279433l1101589 -290921c121718,-32109 235011,-26865 353253,16496 145461,53377 376289,145814 543136,184934 55380,-8012 110878,-15612 166317,-23212 272776,-37470 545787,-73467 818739,-109523 187703,-24803 359793,33581 493706,167495 254630,254630 401210,574714 401210,936157 0,181752 -71110,342177 -167200,491173l-28397 2852302c323973,-230710 655251,-450050 964907,-654897 21916,-14552 41417,-25687 65042,-37293 817384,-402094 1711240,-684001 2629310,-684001 273600,0 549970,19206 804718,42595 706094,42890 1358399,462599 1883389,907760 498891,423067 977102,932563 1254945,1531668 285266,615071 407985,1276331 407985,1952084 0,990594 -250270,1921154 -809608,2741601 -143340,208676 -508317,561105 -644057,701793 -2592,2710 -4831,5008 -7482,7659 -21563,21563 -52316,52670 -85839,88078 271597,46837 552150,83482 815440,89845 243024,-69873 487461,-136859 730662,-205436 90434,-25510 172856,-29457 265293,-12667 458829,83364 712398,459653 712398,912178 0,310894 -108580,595688 -308066,819800 -309597,361266 -679465,724240 -1099586,954361 -425836,233185 -950885,362385 -1425974,447635 -67575,12136 -127079,12785 -194949,2180 -320084,-49960 -640404,-99978 -960017,-153002 -67222,-11194 -134561,-22329 -201724,-34465 -84661,20620 -171737,46189 -252273,67870 -277135,74645 -553682,151941 -829992,229473 -90140,25333 -172385,29163 -264528,12431 -226763,-41181 -455529,-113706 -672631,-190354 -106282,-37529 -188469,-95206 -259873,-182459 -184757,-225762 -320261,-490878 -320261,-788811 0,-162958 66750,-310776 174270,-417588 93616,-117830 186053,-259461 271126,-381179 234363,-335108 465781,-672454 696845,-1009800 223759,-326742 936098,-1403057 936098,-1807801l0 -2473244c0,-279315 -427368,-615071 -631685,-759294 -207557,-135151 -697669,-430373 -948175,-418826 -940693,43361 -1697395,387836 -2230751,1175763 -259697,383712 -477210,839124 -477210,1311739l0 4847276c14493,103749 5950,209796 -27513,310599 -144695,435498 -591446,521514 -989239,523281l-1561655 61861c-8189,353 -15141,471 -23330,471 -398912,0 -745744,-186524 -1022761,-463542 -132382,-132382 -190884,-301821 -168261,-487697l146698 -1205751c-366980,598162 -1052396,1081676 -1572967,1413485 -601933,383594 -1599066,992950 -2332733,992950l-1371714 0c-1120265,0 -2053476,-664383 -2782606,-1458554 -192475,-209678 -372047,-430137 -532826,-661142 39061,122484 59622,252038 59622,387424 0,640110 -794525,960312 -1280042,1147779 -340881,139805 -914181,376642 -1283577,376642l-1267847 0c-1013865,0 -1976180,-238782 -2873099,-712457 -622141,-328627 -1254650,-826398 -1800201,-1268849 -88195,-71523 -301821,-239548 -494649,-364624l0 1652855c0,324503 -264645,589148 -589148,589148l-2431709 0c-106695,0 -204081,-25157 -290391,-74763 -86075,49017 -184875,74763 -291511,74763 -332633,0 -671570,20385 -1003555,40533 -355963,21563 -718172,42595 -1074842,42595 -630506,0 -927791,-602051 -1076020,-1124684 -16025,-56676 -56028,-184050 -98034,-264999l-3447048 80124c-4772,118 -8837,177 -13668,177 -54673,0 -220165,6775 -304001,45836 -57383,195892 -138862,415821 -172856,517626 -146816,469787 -528230,745921 -1019580,745921 -423185,0 -846017,-30812 -1265196,-88667 -186996,-25805 -337052,-127138 -430844,-291039 -93733,-163842 -105104,-344534 -32580,-518863l3490880 -8390473c-18971,-127138 -37529,-254394 -54732,-381709 -13374,-99036 -31225,-212977 -31225,-312661 0,-642289 508199,-950826 1093695,-962904 781623,-91259 1503153,-582962 2073390,-1096169 211327,-190177 520218,-204022 747629,-33405 424953,318729 900749,770842 900749,1344260 0,472438 -332987,801713 -720941,1015044 -22329,12254 -57795,32462 -90729,54084 34406,218869 86251,451936 125783,660317 59504,313427 144930,721766 162841,1059465l2312760 5849712c92732,-1974884 108344,-3954422 67281,-5930308l-265117 -1855994c-23271,-162841 15612,-311365 115768,-441920 100096,-130496 233479,-206555 396791,-226292 868287,-104809 1737575,-201194 2607394,-292041 165315,-17262 313957,28456 441036,135622 127079,107166 197188,245910 208087,411815l21563 329039c399973,-226233 800594,-451229 1201332,-676107 5538,-3122 10310,-5715 15966,-8660 538540,-280788 1117614,-444336 1727265,-444336 461716,0 944110,70698 1397165,155594 700262,131262 1324994,448047 1880031,891028 650302,519040 1101884,1182656 1194911,2020072l62332 561164c2887,25923 3947,48133 3535,74233 -17498,1124507 -543195,2037275 -1393807,2755034 -538835,454646 -1242396,833822 -1901064,1146011 361737,214921 887375,451229 1070129,530646 364329,158363 731781,315489 1102709,458004 119126,45718 313721,126019 447871,155653 160307,-17026 376584,-73644 526581,-107578 221814,-50254 445926,-103808 668801,-148583 199250,-39944 388956,17439 532590,161132 5597,5597 11076,11194 16555,16850 -286680,-544432 -461185,-1139413 -461185,-1782586 0,-8012 118,-14905 471,-22918l62332 -1600362c825,-22329 2592,-41299 5891,-63392 139510,-941989 581489,-1810570 1133816,-2575874 599989,-831288 1340725,-1526189 2236584,-2029086 34995,-19619 66456,-33464 104574,-46012 360205,-118242 720705,-236366 1082324,-350308 156831,-49430 360794,-122307 521926,-149113 23448,-3888 43656,-6068 67399,-7305 269653,-13433 539247,-27219 808901,-41476 86605,-4595 161544,7305 242552,38471l2701893 1039199c290863,111879 444041,429548 350425,726832 -222227,705505 -822274,1136644 -1481708,1401878 -147876,59504 -295870,59033 -443334,-1414l-1700812 -697316 -968147 0c-303176,0 -557688,260757 -729719,482277 -252097,324680 -464956,699908 -532354,1110132l-59445 1846626c131144,850377 454233,2297089 1325878,2677208 170205,74233 351015,104515 536007,104515 121718,0 245557,-8660 366804,-18794 68459,-5656 138391,-11606 208323,-15966l2290255 -1585575c67045,-46425 132264,-74645 212034,-91671 400739,-85839 790460,26747 1036194,364624 19678,27042 38707,54614 56853,82658zm-41384308 -3179456c283262,-1034014 1026002,-1913966 1822471,-2622358 1013453,-901338 2256143,-1662694 3654605,-1662694l1184659 0c671924,0 1294771,284971 1835256,664913 725359,509908 1227196,1207224 1227196,2116928 0,604054 -182459,1154377 -560751,1626462 -194419,256397 -468019,497005 -738556,708038l709688 52611c76471,-30282 160484,-72347 227647,-103926 248503,-116946 534122,-222345 812023,-222345 156713,0 309833,33464 450286,103631 141337,70580 238487,180162 291569,328921 185169,518509 -135858,1022997 -465840,1397931 -312720,355315 -730544,719527 -1232086,719527l-5594611 0c154946,311011 520336,656193 704562,818150 276016,242611 821096,681703 1197326,706094 293749,13727 587558,27572 881307,42595 81244,4124 182282,5715 275014,13079 236661,-40003 500364,-109110 737260,-166140l1837553 -1058582c111408,-64158 224878,-88549 352782,-75706 558041,55851 946172,429077 946172,1001906 0,798590 -1255298,1528958 -1848453,1879088 -428723,253039 -1521593,913121 -2024549,913121 -5126,0 -9485,-59 -14611,-177l-2514838 -62332c-21033,-530 -38943,-1885 -59799,-4536 -957778,-121954 -1793721,-591741 -2514544,-1216591 -603818,-523399 -1086802,-1141769 -1354864,-1864006 -201076,530469 -546906,1002966 -960253,1416312 -598103,598103 -1311444,1067360 -2067262,1441587 -440742,218221 -1173112,576128 -1685259,465898l-1623162 -267120c-86133,-14140 -158834,-42478 -229061,-89609 -122955,-69696 -272187,-134326 -399560,-194831 -332810,-158068 -666916,-313721 -1000727,-469728 -622553,-290921 -1171109,-773021 -1171109,-1510635 0,-32521 2180,-60270 7305,-92437l353312 -2223858c28986,-182459 129200,-327508 289625,-419120 160366,-91613 336227,-104279 508081,-36586 587204,231241 1059406,628798 1417844,1127924 183107,241904 529880,692779 785924,858743 514562,333517 1305258,464367 1925454,521219 688832,-222286 968383,-672631 968383,-1419376 0,-898864 -1072662,-1324464 -1797786,-1541448 -934978,-119715 -2095600,-351663 -2865205,-913062 -471201,-343709 -779384,-788870 -965025,-1289292 -4065,51550 -8719,102806 -12490,151824 -19795,257635 -41181,515210 -62685,772786 -1650,20385 -4006,37647 -7718,57795 -208382,1131283 -611772,2201588 -1183540,3199723 -635632,1109779 -1477230,2082286 -2602209,2714795 -750045,421712 -1589699,740677 -2460696,740677 -569058,0 -1236917,-140924 -1828657,-291216l0 2403961c0,363269 47368,807192 254394,1117673 198955,298521 473557,722237 426897,1096051 -27690,221696 -165551,397498 -374227,477328l-706624 270183c-112645,43067 -220459,50961 -338230,24803 -795998,-176921 -1600539,-211151 -2407613,-95854 -175095,25039 -335697,-22211 -469316,-138096 -133619,-115944 -203138,-268180 -203138,-445102l0 -6903050c-79476,621905 -478506,1142476 -941577,1554762 -505843,450404 -1134287,825397 -1833842,803539 -33876,-1060 -62626,-4301 -95854,-10899l-1644431 -325033 -1045031 311659c-116946,34878 -226469,34288 -343002,-1885l-602758 -187055c-175566,-54496 -304295,-173445 -372518,-344180 -68164,-170735 -56794,-345653 32933,-506078 454587,-812789 902045,-1629525 1347971,-2447086 451229,-827223 818504,-1729680 966085,-2664894 -12785,-501012 -19442,-1002259 -19619,-1503447 -25569,-403213 -116298,-793347 -268475,-1168045 -1767,-4301 -3240,-8071 -4890,-12431 -174152,-458357 -436205,-941871 -839654,-1238331 -74233,-44834 -167613,-87076 -244850,-124664 -193005,-93969 -387836,-184698 -582785,-274661 -198896,-33228 -763124,76766 -948647,114413 -258577,52493 -568823,242199 -783980,388190 -3535,2416 -6598,4419 -10192,6716 -291687,189234 -638519,467666 -769840,801949 -1885,4831 -3535,8896 -5538,13609 -193653,458888 -395967,920544 -582020,1382613 -36233,161721 -61448,340822 -89256,502485 -73113,425601 -143634,851673 -213861,1277804l368453 4646436c1296,16260 1826,30223 1826,46543 0,481511 -234835,881366 -678993,1078730 -78946,35113 -152884,50785 -239253,50785l-2355474 0c-191532,0 -356376,-82422 -471319,-235600 -83482,-111349 -177157,-236013 -239312,-360500 -12961,-25981 -22505,-48899 -31696,-76471 -40003,-119715 -51492,-244614 -30400,-365508 0,-2769 0,-5538 0,-8307l0 -8450154 -544196 -2216965c-11842,-48310 -16967,-90729 -16967,-140453 0,-433024 290686,-738085 658138,-921840 82009,-41005 160072,-60270 251743,-62096 937747,-18735 1879736,-41653 2817602,-41653 285855,0 525756,198779 578897,479626l145461 768956c7188,37941 10251,70875 10251,109523 0,100450 -19088,213036 -44834,323383 627089,-404156 1251881,-810845 1866952,-1211760 477858,-326211 1023645,-469728 1600009,-469728 242493,0 484928,0 727421,0 374109,0 748218,0 1122327,0 605055,0 1226666,493883 1657981,875121 420122,371281 828225,782507 1142535,1229552 642407,863750 737378,2473244 760590,3511324 27867,1241866 -1016693,2924650 -1838025,4086509 8366,2416 16319,4772 23861,7011 147405,43656 397263,125371 551325,141926 143458,-1296 309892,-24862 451111,-42242 321793,-39709 643350,-88078 963729,-137802 311836,-48369 606292,157303 668094,466723 7247,36174 13138,72583 17792,109110l0 -7198390 -461833 -1927575c-8130,-33876 -12608,-63333 -14905,-98093 -31166,-468137 234128,-839890 628386,-1068420 134149,-77826 275957,-99213 427132,-64571l934389 214214c250329,-63569 537362,-87724 776969,-103160 253157,-16319 541604,-41005 787397,-106223 182695,-48546 360500,-12843 510379,102394 149820,115296 229945,277960 229945,467018l0 583787c323855,-232242 642938,-471083 957366,-716051 291098,-226763 651598,-460184 1023704,-512854 147346,-23448 337759,-20090 463895,-21916 349777,-5067 700026,-5243 1049862,-5243 1110132,0 2107266,703855 2874985,1442942 703325,677108 1354688,1517351 1570139,2487089 27808,-381415 92320,-762358 176273,-1132932 187762,-828401 907819,-1507572 1563717,-1994974 568292,-422301 1364114,-926848 2097250,-926848 226763,0 481216,8012 716876,236 57383,-15848 118124,-23154 180692,-20502 385244,16084 755111,112351 1104417,269182 465427,29929 942343,324621 1303019,581489 376996,248031 801124,565465 1062882,936216 160366,227234 142868,526463 -42949,733372l-914476 1018402c-116651,129907 -267297,196540 -441802,195538 -174565,-1002 -324385,-69461 -439505,-200664 -544314,-620550 -1197267,-983995 -2030323,-983995 -307241,0 -610770,57972 -870584,228236 -241374,175802 -327684,402565 -327684,699790 0,193653 204022,345359 337464,430078 186053,111644 440212,238310 661555,249328 37116,1885 68636,6304 104868,14788 543489,127197 1087744,258459 1626285,405334 321675,87724 667682,182695 976572,308537 4419,1826 8248,3417 12608,5302 743859,323442 1315863,848138 1636772,1596886 2946,6834 5833,13668 8719,20561zm-16426338 3264706c40416,196540 81774,393256 127315,588618 19088,81715 40003,184698 68400,263290 2180,5833 3829,10487 5891,16437 33876,99448 155830,409458 252155,445278 186465,62155 429489,73702 624320,73702 513030,0 1040436,-102689 1418198,-456708 790107,-768544 1321047,-1680604 1577503,-2751205l234776 -1587696c-54614,-517095 -104986,-1068008 -194360,-1576266 -66220,-376584 -203551,-946643 -469846,-1216356 -201312,-191238 -430608,-367687 -683648,-484928 -214332,-99271 -441272,-142868 -677167,-142868 -439446,0 -835412,151647 -1196501,396968 -393433,267355 -689893,610417 -884488,1045385 -3594,8071 -6834,14905 -10840,22859 -75647,151352 -117771,424305 -140924,590327 -29811,214038 -65631,481334 -130732,702324 -7895,558277 -15789,1116554 -24744,1674831 -3653,231182 -4183,465840 -12902,696962 24862,563402 75175,1136290 117594,1699045zm19781714 -2370556l902929 -195597c712634,-189882 1765736,-571533 2007758,-1360402 8837,-117358 14375,-235306 14375,-352900 0,-766011 -306004,-1124154 -1048625,-1223072 -232831,18912 -837769,568705 -999549,723651 -230828,221107 -805601,812966 -805601,1164510 0,165374 -26806,357377 -45129,522221 -18676,168084 -38000,347715 -38000,516919 0,42478 2474,127433 11842,204670zm12844611 2246481l-994188 -2835865 -1193673 2837633c478742,20149 1539916,55026 2187861,-1767zm11404614 -4274212c-35231,-92143 -198131,-262466 -260168,-323442 -47721,-46837 -150351,-144754 -225938,-194360 -28102,118 -56794,-1944 -86605,-6068 -222993,-30989 -451641,-67281 -676107,-93498 -236955,35585 -473970,71110 -710984,106636 -1167397,372577 -1684434,1262839 -1854462,2448029l-138273 1304021c337935,-19619 676460,-41476 1013394,-71523 178217,-15907 395908,-31284 570060,-71169 289684,-66397 586261,-139392 878420,-192475 10192,-1826 18853,-3181 29104,-4536 234186,-30577 719468,-520336 871527,-683471 131910,-141513 572947,-644116 590032,-841893l0 -1376250z"/>
  <path class="fil2" d="M55170201 13655338c159306,-2435892 194242,-4881742 143045,-7321935l-267650 -1873668c-11606,-81420 7836,-155712 57913,-220931 50078,-65278 116769,-103337 198425,-113175 866637,-104633 1734394,-200841 2602680,-291511 82658,-8660 156949,14198 220459,67811 63569,53554 98623,122955 104044,205907l52316 797707c535123,-304354 1071896,-605880 1608728,-907171 2769,-1591 5126,-2887 7954,-4360 496357,-258754 1029124,-410931 1591113,-410931 442922,0 908290,69107 1342846,150586 652658,122307 1233441,418943 1750595,831701 588206,469492 1001611,1063825 1085859,1822353l62332 561164c1473,12961 2003,24096 1767,37116 -16143,1038609 -504252,1872136 -1289233,2534457 -602817,508671 -1431630,923019 -2146267,1248405 -27278,12431 -83070,39061 -127492,66044 221579,277724 1289881,759530 1515348,857564 383594,166729 771195,332692 1162331,481040 110642,41947 379235,149231 486519,159600 150999,-2416 459418,-83188 610829,-117476 219458,-49665 441213,-102747 661731,-146992 99625,-20031 194478,8719 266295,80537 199191,199250 314900,444689 314900,727893 0,460478 -754758,742975 -1097289,875239 -291098,119420 -857034,354608 -1171757,354608l-1267847 0c-965909,0 -1881033,-227117 -2735533,-678404 -603759,-318847 -1222836,-807781 -1752245,-1237152 -167495,-135858 -732135,-578544 -957307,-578544 -4890,1060 -10899,4478 -17439,9309l0 2086292c0,162251 -132323,294574 -294574,294574l-2431709 0c-84543,0 -157244,-31519 -215039,-93262 -41123,-43950 -66456,-94440 -75706,-150351 -7129,39944 -23036,78592 -47544,114648 -56558,83188 -143045,128965 -243613,128965 -338642,0 -683412,20561 -1021347,41064 -350013,21209 -706389,42065 -1057050,42065 -472733,0 -685121,-531353 -792581,-910470 -22152,-78121 -152118,-482041 -260580,-482100l-3574775 83129c-2416,59 -4419,59 -6834,59 -181517,0 -429548,24155 -561164,170087 -50902,194772 -166434,508906 -196893,600048 -108344,346773 -375936,539247 -738380,539247 -409753,0 -819093,-29870 -1224898,-85898 -93557,-12902 -168555,-63569 -215452,-145520 -46896,-81951 -52552,-172267 -16260,-259461l3522400 -8466179c-23036,-152707 -45659,-305532 -66338,-458534 -11371,-84484 -28574,-188351 -28574,-273247 0,-480981 392314,-663970 818268,-668565 852969,-94558 1628229,-610770 2251312,-1171521 105693,-95147 260109,-102040 373815,-16732 338112,253569 782919,647474 782919,1108600 0,356317 -280376,598575 -568351,756938 -53848,29634 -231005,136388 -261700,202255 8189,73408 25687,155830 38354,227117 35526,199603 73172,398912 110996,598103 59150,311483 149997,738438 160131,1066830l2806938 7099826c7247,18323 12667,36763 16260,55203zm-45272746 189941l-1114845 332456c-58444,17439 -113234,17144 -171501,-943l-602758 -187055c-87783,-27219 -152177,-86723 -186230,-172090 -34112,-85368 -28397,-172797 16437,-253039 455117,-813673 903046,-1631293 1349503,-2449737 472085,-865518 852439,-1808096 1002613,-2786966 -13256,-510438 -20149,-1021053 -20208,-1531668 -26747,-438208 -124782,-862690 -290097,-1269673 -884,-2180 -1650,-4065 -2474,-6245 -197424,-519570 -493176,-1047506 -952005,-1379432 -72760,-47544 -180456,-95678 -258165,-133678 -209501,-102394 -421418,-200782 -633158,-298521 -168084,-75529 -925729,67634 -1106597,104338 -302763,61448 -638224,261759 -890792,433083 -1767,1237 -3240,2239 -5067,3417 -349601,226763 -727127,542664 -883722,941341 -943,2416 -1767,4419 -2769,6834 -197424,467902 -403802,938631 -593037,1409832 -39826,165963 -65985,358732 -94735,525992 -76177,442627 -149467,885902 -222462,1329060l371281 4682197c648,8130 943,15082 943,23271 0,364860 -166552,659551 -504075,809549 -39473,17557 -76413,25392 -119597,25392l-2355474 0c-95796,0 -178158,-41181 -235659,-117830 -71699,-95560 -158127,-208558 -211445,-315312 -6481,-12961 -11253,-24450 -15848,-38236 -26688,-79889 -33817,-163135 -15200,-242965 0,-12490 0,-24980 0,-37470l0 -8485738 -552680 -2251607c-5891,-24155 -8484,-45364 -8484,-70226 0,-315960 231771,-526581 495297,-658373 41005,-20502 80065,-30105 125901,-31048 935744,-18676 1875789,-41594 2811710,-41594 142927,0 262878,99389 289449,239842l145461 768956c3594,18971 5126,35408 5126,54732 0,150940 -63039,363033 -105163,508199 -36468,125547 -81892,295517 -81892,427074 0,8012 177,15907 530,23743 163253,-103867 326918,-214862 480745,-313898 666150,-428782 1330179,-860981 1988611,-1290176 428605,-292689 917068,-418472 1433869,-418472 242493,0 484928,0 727421,0 374109,0 748218,0 1122327,0 512382,0 1099233,479861 1462914,801301 402447,355610 795998,750516 1101236,1184542 594215,799003 680996,2383399 702500,3342179 28574,1274446 -1221363,3141456 -2017420,4234680 145932,55792 334754,111172 413994,134679 136859,40533 485458,151529 623024,154121 159188,0 341058,-25039 499126,-44540 324915,-40062 649477,-88844 972919,-139039 155948,-24214 303117,78651 334047,233362 18794,94146 26453,190413 26453,286326 0,632038 -406218,1158972 -857270,1560595 -446928,397970 -1008445,748454 -1628759,729130 -16909,-530 -31343,-2180 -47957,-5479l-1715894 -339173zm8120761 109051c-24037,23566 -46602,48546 -67399,75057l0 2692702c0,427604 61154,916950 303824,1281103 146344,219458 414171,620373 379706,896153 -13786,110819 -82716,198720 -187055,238605l-706624 270183c-56323,21563 -110230,25510 -169144,12431 -830699,-184639 -1671001,-220224 -2513189,-99861 -87547,12490 -167848,-11135 -234658,-69107 -66809,-57913 -101569,-134090 -101569,-222521l0 -14596973 -469905 -1961451c-4065,-16967 -6304,-31696 -7482,-49076 -23625,-354785 186112,-622376 482159,-793995 67104,-38884 137979,-49606 213566,-32285l1006619 230828c242611,-72937 551973,-97563 789577,-112940 273483,-17616 578544,-44952 844014,-115473 91377,-24214 180279,-6363 255160,51256 74940,57619 115002,138980 115002,233479l0 1150665c488050,-335697 965673,-686476 1432985,-1050510 245027,-190884 570119,-409105 883840,-454057 122130,-20974 330983,-17203 426956,-18558 348422,-5067 697198,-5243 1045620,-5243 1025295,0 1963513,679759 2670668,1360579 734904,707567 1431748,1617801 1538914,2655586 55439,401799 110819,803598 166258,1205456 1944,14022 2769,26099 2769,40239 0,106930 -13433,227411 -21622,334342 -19795,257045 -41123,514032 -62509,770901 -884,10192 -2003,18853 -3888,28927 -202372,1098585 -594215,2137430 -1149428,3106697 -608767,1062706 -1413367,1998509 -2490978,2604389 -704091,395908 -1498204,702913 -2316354,702913 -639344,0 -1425091,-191827 -2055833,-360441zm13936538 -12327810c415644,3122 890085,306828 1206399,532413 343650,225821 749809,524637 988650,863043 80183,113588 71405,263173 -21504,366686l-914476 1018402c-58267,64924 -133619,98270 -220872,97740 -87253,-530 -162193,-34701 -219752,-100332 -600696,-684885 -1333184,-1084327 -2251784,-1084327 -369985,0 -730838,75529 -1034250,277666 -325504,232478 -458593,548674 -458593,944935 0,311954 241197,530999 480450,682705 232596,139510 522928,277194 798414,290921 18617,943 34347,3181 52434,7423 540013,126372 1080851,256751 1615916,402683 309774,84484 645530,175979 942932,297166 2239,884 4124,1650 6363,2651 674693,293337 1192259,763242 1483475,1442706 351839,820978 397911,2039219 397911,2921822 0,877890 -459241,1620452 -1063118,2224388 -575185,575127 -1262898,1026002 -1989672,1385853 -356258,176391 -1084268,536125 -1499088,440447l-1630821 -268298c-49017,-8071 -89315,-25333 -117417,-47073 -116121,-71346 -284087,-142161 -408574,-201371 -341353,-162310 -684060,-321970 -1026532,-481982 -511793,-239135 -1001199,-629623 -1001199,-1243751 0,-16260 1119,-30164 3653,-46248l353312 -2223858c14493,-91200 64630,-163724 144813,-209560 80183,-45777 168143,-52140 254041,-18264 534299,210444 961313,572829 1290883,1031599 210149,277724 566348,737437 860628,928144 577719,374522 1434988,513973 2117340,572652 853263,-254041 1231261,-821391 1231261,-1717956 0,-1072544 -1158089,-1571612 -2031324,-1830660 -882014,-111585 -2023724,-330159 -2752677,-861806 -810491,-591210 -1077022,-1518353 -1077022,-2482671 0,-491644 75470,-989475 183991,-1468040 169851,-749514 860392,-1383968 1452133,-1823650 507198,-376937 1265373,-868699 1921507,-868699 211917,0 423892,-177 635750,-2474 43067,-412 89963,0 136565,-589 35172,-12843 73349,-19147 112940,-17498 366391,15318 716935,111820 1046916,267061zm6009077 8760105c-11135,14964 -19029,28809 -19029,37941 0,471201 553269,1011568 876770,1296008 339526,298463 910823,748866 1378077,779090 293337,13786 586733,27513 880011,42537 86840,4478 207027,4949 303058,15612 75411,-12136 159365,-33405 230887,-49076 201548,-44245 402742,-90611 603759,-137330l1874257 -1079732c55733,-32109 112409,-44304 176391,-37882 406984,40769 680938,287799 680938,708804 0,631685 -1240923,1352272 -1703581,1625401 -354726,209324 -1462561,872234 -1874847,872234 -2533,0 -4713,0 -7305,-118l-2514838 -62332c-10487,-236 -19442,-884 -29929,-2239 -898628,-114413 -1682902,-561105 -2358773,-1146954 -747452,-647886 -1302371,-1448775 -1448362,-2434773 -83247,-485458 -160189,-971918 -229886,-1459497 -2062,-14493 -2946,-26983 -2946,-41653 0,-89845 13433,-193476 22152,-283204 19029,-195185 39944,-390252 61036,-585260 7247,-1324641 901515,-2434125 1844564,-3272895 955775,-850082 2138019,-1588226 3458831,-1588226l1184659 0c608531,0 1177059,267709 1665817,611359 645058,453409 1102061,1064414 1102061,1875907 0,538364 -160484,1024823 -498596,1445416 -243377,322500 -638637,627266 -962786,863986 -92909,67870 -219399,160189 -345830,261052l1555175 115178c93027,-28809 229591,-98034 310069,-135917 205200,-96561 456884,-194301 686593,-194301 110996,0 219163,22859 318670,72583 70639,35290 119244,90081 145814,164431 142574,399325 -159954,820566 -409635,1104241 -248797,282732 -608531,619607 -1010920,619607l-5942326 0zm34423816 -4884216l-1026178 0c-406807,0 -727009,293101 -962374,596218 -287504,370280 -521337,794584 -593508,1262780l-60918 1892344c182106,1201568 633334,3058563 2157166,3058563 129966,0 261817,-9014 391253,-19795 92555,-7718 188469,-16084 282850,-19795l2358950 -1633119c33523,-23212 66161,-37293 105988,-45836 286149,-61271 559573,6834 736318,249858 109817,150940 201901,328686 201901,519688 0,856209 -1056166,1597476 -1695038,2004636 -537716,342708 -1518471,946820 -2174370,946820l-1371714 0c-1031893,0 -1895820,-633629 -2565564,-1363230 -708922,-772197 -1241453,-1702344 -1241453,-2776361 0,-4006 59,-7423 236,-11488l62332 -1600362c412,-11135 1296,-20620 2946,-31696 132382,-893856 557393,-1720725 1081323,-2446615 574832,-796528 1283460,-1462678 2141849,-1944602 17498,-9839 33287,-16732 52316,-22977 359086,-117947 718466,-235659 1078966,-349247 141455,-44599 336816,-115355 481805,-139510 11724,-1944 21798,-3064 33640,-3653 269948,-13491 539837,-27278 809725,-41535 43302,-2298 80831,3653 121306,19206l2701893 1039199c145461,55969 222050,214803 175213,363446 -194065,616190 -737496,986529 -1310678,1217121 -73938,29752 -147935,29457 -221696,-766l-1754484 -719291zm12075006 8444910c-97799,20502 -207675,54143 -299405,78828 -285383,76589 -570119,156242 -854618,236072 -45070,12667 -86192,14611 -132264,6186 -210915,-38295 -425365,-106989 -627266,-178276 -53141,-18735 -94264,-47603 -129966,-91200 -139805,-170912 -253628,-375700 -253628,-602286 0,-87901 38825,-167024 100214,-221048 94264,-112940 194007,-268887 276959,-387365 240078,-342943 476974,-688302 713517,-1033661 274897,-401387 987648,-1472340 987648,-1974295l0 -2473244c0,-413229 -460891,-792640 -756879,-1000551 -273306,-178748 -790166,-487520 -1131106,-471790 -1034191,47662 -1875259,439328 -2461108,1304905 -294574,435204 -527877,941871 -527877,1476818l0 4870371c11901,64688 8543,131262 -12490,194596 -97092,292335 -456767,321204 -716051,321616l-1566958 62096c-4065,177 -7600,236 -11665,236 -319142,0 -593685,-156478 -814497,-377232 -66161,-66220 -95383,-150940 -84071,-243907l185169 -1522830c24450,-1395044 48487,-2790324 82952,-4185133 14198,-575539 41476,-1163627 41476,-1738577 0,-361384 -36115,-750987 -61625,-1111958 -55733,-789518 -119597,-1578800 -184403,-2367610l-365861 -1260188c-22977,-79123 -14022,-155535 26571,-227234 40533,-71699 101451,-118654 181104,-139687l1101589 -290921c60918,-16084 117535,-13433 176627,8248 139923,51256 469551,181340 631685,207616 77414,-16143 157008,-22152 219281,-30695 272245,-37352 544785,-73290 817208,-109287 93910,-12372 179926,16791 246912,83718 199191,199250 314900,444748 314900,727893 0,127668 -63569,246853 -132617,350425 -10487,15848 -30518,46837 -33640,47426l-35231 3535773c458947,-358673 969208,-695961 1427860,-999372 11017,-7247 20738,-12843 32521,-18676 775908,-381591 1627640,-653719 2499344,-653719 264645,0 532237,18794 786866,42065 635691,38589 1239156,438503 1710710,838417 464484,393905 919366,872764 1178238,1430864 267120,576069 380649,1195441 380649,1828186 0,931326 -232596,1804502 -757880,2576463 -111349,166729 -504723,549970 -616956,666327 -72112,72053 -309126,319672 -347303,433260 11076,24096 36233,56735 61566,86075 404922,81067 852910,157303 1262663,162193 256456,-74174 514680,-144813 771607,-217278 45188,-12785 86428,-14729 132617,-6304 317787,57737 470494,313250 470494,622317 0,238723 -82068,453821 -237132,628150 -285030,332515 -630506,675694 -1017459,887611 -395672,216689 -895211,336875 -1336483,416057 -33817,6068 -63569,6422 -97504,1119 -319142,-49842 -638519,-99684 -957189,-152589 -78828,-13079 -157892,-26158 -236425,-40828 -7129,-1355 -14257,-2710 -21386,-4183zm-66493336 -3068166c42772,208028 86428,416351 134797,623142 21209,90493 44775,204258 77296,291039 1119,2887 2003,5420 3005,8366 72465,212388 215452,547495 437855,629682 219458,73113 487815,88785 717465,88785 591799,0 1184365,-128434 1623575,-540131 833291,-810491 1393395,-1776164 1661634,-2906504l242140 -1637420c-56912,-534593 -108403,-1106067 -201076,-1633414 -78769,-447929 -233067,-1050982 -557099,-1378902 -225055,-213802 -479979,-407632 -762711,-538599 -253216,-117358 -522280,-170205 -801006,-170205 -499068,0 -951651,169027 -1362052,447929 -438680,298050 -770901,683765 -987825,1168693 -1826,4065 -3417,7482 -5420,11429 -93262,186465 -140630,476621 -169203,681409 -28927,207675 -65042,487697 -132971,696845 -8012,572063 -16143,1144185 -25274,1716248 -3712,233008 -4124,469669 -13197,702500 25098,576658 76825,1163155 120068,1739107zm19897894 -2071858l1148132 -248738c842600,-223759 1968403,-660553 2230044,-1593469 10781,-135033 17616,-270831 17616,-406277 0,-914947 -414407,-1396812 -1323345,-1516173 -312720,-41005 -1020640,610004 -1223131,804011 -311129,297991 -896448,908938 -896448,1377252 0,153414 -26335,336698 -43361,489759 -19854,179219 -39768,368984 -39768,549381 0,111054 7423,446633 130261,544255zm13417027 2146797l-1365410 -3894918 -1632176 3879954c78357,38825 156772,69637 200723,65278 15023,-1532 27985,-1885 43067,-1178 410283,19265 2080695,91907 2753797,-49135zm10578275 -5333324c-33817,7482 -66220,8543 -102099,3535 -235954,-32757 -483514,-74056 -720882,-98918 -257752,38648 -515564,77296 -773316,116003 -1295125,403684 -1893640,1389919 -2080224,2699477l-144930 1366529c-1885,17733 -4772,32757 -9662,49901 -21681,75706 -6186,110465 53612,156772 31932,20974 91789,58502 127610,69578 388956,-21975 778972,-45836 1166985,-80478 192828,-17203 421182,-34230 609710,-77473 285266,-65337 577601,-137448 865282,-189706 5067,-943 9426,-1650 14552,-2298 337582,-44068 829933,-539837 1048861,-774730 187526,-201194 669155,-746687 669155,-1042734l0 -1399463c0,-149585 -251095,-414878 -348363,-510379 -63157,-62096 -277489,-260816 -376289,-285619z"/>
  <path class="fil3" d="M13832023 11671616c13845,69284 20738,145461 20738,228590 0,443393 -252862,890262 -758587,1340607 -505725,450286 -980284,668507 -1423677,654662l-1787417 -353312 -1184659 353312 -602758 -187055c457238,-817502 907583,-1635004 1350976,-2452506 554212,-1011450 900631,-1981365 1039199,-2909685 -13904,-526522 -20797,-1046151 -20797,-1558827 -27749,-471083 -131675,-928321 -311777,-1371714 -263231,-692779 -616603,-1198504 -1059996,-1517234 -83129,-55380 -394847,-207852 -935273,-457238 -180103,-83129 -609651,-55439 -1288585,83129 -277076,55439 -609651,214803 -997605,478035 -512677,332574 -845192,692779 -997605,1080793 -374109,886727 -575009,1364762 -602758,1434046 -27690,110878 -138568,755170 -332515,1932878l374109 4717958c0,263231 -110878,443393 -329098,540367l-2355474 0c-93557,-124723 -155889,-214745 -183579,-270183 -13904,-41594 -13904,-76236 0,-103926 0,-27690 0,-55439 0,-83129l0 -8521382 -561164 -2286190c0,-152413 110819,-284028 332515,-394906 1385559,-27690 2320832,-41535 2805819,-41535l145461 768956c0,69284 -31166,211327 -93498,426072 -62391,214803 -93557,384537 -93557,509201 0,166258 48487,318729 145520,457238 124664,-69284 1053044,-665089 2785022,-1794310 360264,-245969 782860,-367157 1267788,-367157 97033,0 339467,0 727421,0 401858,0 775967,0 1122327,0 304825,0 727480,242435 1267847,727421 443393,384478 796705,765539 1059937,1139648 401858,540367 616603,1596886 644351,3172976 27690,897155 -678993,2324308 -2119991,4271089 0,41535 13845,76177 41594,103926 83129,69225 311718,159306 685828,270183 374109,110819 609710,166258 706683,166258 207852,0 713576,-62332 1517234,-187055zm11909102 -3824220c-194007,1053044 -564640,2057600 -1115376,3013670 -647769,1136172 -1441057,1967520 -2379747,2494041 -786336,443393 -1506865,665089 -2171954,665089 -453762,0 -1143065,-124723 -2067969,-374109l-79653 0c-110878,83129 -200900,180103 -270183,290980 0,-27749 0,20738 0,145461l0 2639561c0,609651 117771,1091103 353312,1444474 235541,353312 346360,585378 332515,696255l-706624 270183c-872941,-194007 -1745823,-228648 -2618764,-103926l0 -14631792 -478035 -1995268c-13845,-207793 96974,-381002 335991,-519570l1087686 249386c152413,-58856 419179,-100450 793288,-124664 377526,-24273 678934,-65867 900631,-124723l0 1704288c651186,-429548 1285109,-886786 1908605,-1371773 301408,-235541 550795,-367157 744801,-394847 41535,-13904 519570,-20797 1430570,-20797 758646,0 1583041,426072 2466351,1278216 886786,852085 1368297,1680015 1451426,2483613 55439,401858 110819,803657 166258,1205456 0,55439 -27690,415703 -83129,1080793zm-2577170 -405275c-97033,-904107 -166317,-1465271 -207852,-1690443 -124723,-720469 -339467,-1233146 -644293,-1541448 -277135,-263290 -557688,-460714 -841775,-592330 -284028,-131616 -592330,-197483 -924845,-197483 -526522,0 -1035723,166317 -1527603,498832 -491939,335991 -855620,765539 -1091162,1292061 -83129,166258 -148937,422596 -197483,772491 -48487,346360 -93498,575009 -135092,685828 -27690,1970996 -41535,2771177 -41535,2397068 0,124723 41535,741325 124664,1853225 110878,540367 187055,865989 228648,976867 152413,446810 360264,716993 623496,814026 207852,69284 478035,103926 810609,103926 775908,0 1385559,-207852 1828952,-623555 886786,-862513 1468747,-1884391 1745823,-3062157l249445 -1686908zm11347938 3148703c0,692838 -325622,1364821 -976867,2016065 -512677,512677 -1150017,956070 -1912081,1330179 -665089,332515 -1101531,471083 -1309382,415644l-1641956 -270183c-55380,-41594 -547260,-277135 -1475640,-706624 -554212,-263290 -831347,-588913 -831347,-976867l353312 -2223858c457297,180103 845251,491880 1163921,935273 387954,512677 699731,845192 935273,997605 512677,332574 1281633,540367 2306987,623496 997605,-277076 1496437,-949118 1496437,-2016006 0,-969915 -755111,-1676539 -2265452,-2119932 -1219301,-152413 -2099135,-422596 -2639502,-810550 -637400,-471142 -956070,-1219360 -956070,-2244655 0,-415703 58915,-883310 176686,-1402939 117771,-519570 564581,-1070365 1340548,-1652325 734314,-540367 1316275,-810550 1745823,-810550 789753,0 1080734,-6893 872941,-20797 332515,13904 665031,103926 997605,270183 249386,-27690 616603,131675 1101531,478035 443393,290980 748218,554271 914476,789812l-914476 1018402c-692779,-789812 -1517234,-1184659 -2473244,-1184659 -471142,0 -872941,110819 -1205456,332515 -388013,277135 -581961,672041 -581961,1184659 0,360264 207852,672041 623496,935273 346419,207852 658138,318729 935273,332574 1302430,304825 2140729,533415 2514838,685828 637400,277135 1080734,706683 1330179,1288644 249386,581902 374109,1517175 374109,2805760zm10537388 -1828952c69284,194007 -48487,464190 -353312,810550 -304884,346419 -568116,519629 -789812,519629l-6068875 0c-124723,110819 -187055,221696 -187055,332515 0,443393 325622,949118 976867,1517234 609651,540367 1129220,824395 1558769,852144 886786,41535 1281633,62332 1184659,62332 41594,0 360264,-69284 956070,-207852l1912081 -1101531c277135,27749 415703,166258 415703,415703 0,290980 -519570,748218 -1558769,1371714 -956070,554212 -1531079,831347 -1725085,831347l-2514838 -62332c-762063,-97033 -1496437,-457238 -2203061,-1077317 -775967,-665089 -1226253,-1420201 -1350976,-2261976 -83129,-484928 -159306,-966439 -228590,-1451367 0,-55439 27690,-339467 83129,-852144 0,-1021878 581961,-2043755 1745823,-3069109 1122327,-1007974 2210013,-1513758 3263057,-1513758l1184659 0c471142,0 969915,187055 1496437,557747 651245,457238 976867,1001081 976867,1634945 0,484987 -145520,904107 -436441,1264371 -166317,221696 -467666,488404 -904107,807133 -436500,318670 -717052,564581 -841775,744742l2244655 166258c41594,0 180162,-55439 415703,-166258 235541,-110878 422596,-166258 561164,-166258 69284,0 131616,13845 187055,41535zm-5071271 -4011275c-318670,-41535 -807074,252862 -1465271,883310 -658138,630448 -987236,1160445 -987236,1589993 0,55380 -13845,207793 -41535,457238 -27690,249386 -41594,443393 -41594,581902 0,498832 131675,782860 394906,852144l1247050 -270183c1413308,-374109 2230751,-983760 2452448,-1828952 13904,-166258 20797,-318670 20797,-457238 0,-1066948 -526522,-1669646 -1579565,-1808214zm14901975 8957823c-235541,0 -581961,13845 -1039199,41594 -457238,27690 -803657,41535 -1039199,41535 -207852,0 -377585,-232066 -509201,-696255 -131616,-464190 -315194,-696255 -550795,-696255l-3574775 83129c-401858,0 -678934,110878 -831347,332574 0,13845 -69284,228590 -207852,644293 -69284,221696 -221696,332515 -457238,332515 -387954,0 -782860,-27690 -1184659,-83129l3553978 -8542120c-69284,-457238 -103867,-713576 -103867,-769015 0,-249386 180103,-374109 540367,-374109 789753,-83129 1600362,-498832 2431709,-1247050 443393,332574 665089,623555 665089,872941 0,180103 -138568,346419 -415703,498832 -277135,152413 -415703,304825 -415703,457238 0,41535 51963,335991 155889,883310 103926,547260 155889,904048 155889,1070365l2826616 7149609zm-3221522 -2577170l-1714657 -4891168 -2029851 4825360c263231,169734 464131,245910 602699,232066 1773572,83129 2823140,27690 3141810,-166258zm15234550 1745823c0,166258 -304884,367157 -914535,602699 -540367,221696 -893679,332574 -1059937,332574l-1267847 0c-914476,0 -1780465,-214745 -2597967,-644293 -415644,-221696 -983760,-623555 -1704229,-1205456 -526581,-429548 -907583,-644293 -1143124,-644293 -110878,0 -214803,62332 -311777,187055l0 2203061 -2431709 0c152413,-2313939 200900,-4780290 145520,-7399054l-270183 -1891284c803598,-97033 1669587,-194007 2597967,-290980l83129 1267788c665089,-381002 1337072,-758587 2016006,-1139648 484987,-252862 969915,-377585 1454902,-377585 332515,0 762063,48546 1288585,145520 581902,110819 1122327,367157 1621100,772432 581961,457297 907583,997664 976867,1624635l62332 561164c-13845,890203 -408751,1659218 -1184659,2313939 -443393,374109 -1136172,775908 -2078397,1205456 -221696,100450 -332515,197424 -332515,294397 0,277135 575009,665089 1725026,1167397 1025354,443393 1614207,665089 1766620,665089 83129,0 308301,-41594 675517,-124723 367157,-83129 585378,-131616 654662,-145520 152413,152472 228648,325622 228648,519629zm-4011275 -5060843l0 -1399463c0,-194007 -145520,-432965 -436500,-720528 -290980,-284028 -505725,-405275 -644293,-363681 -498773,-69284 -755111,-103926 -769015,-103926 -277076,41594 -554212,83129 -831347,124723 -1316275,401799 -2085290,1385559 -2306987,2951279l-145461 1371714c-55439,194007 0,353312 166258,478035 124723,83129 221696,124723 290980,124723 983760,-55439 1600362,-110878 1849749,-166258 415644,-97033 699731,-159365 852144,-187055 318670,-41594 727421,-332574 1226253,-865989 498773,-536950 748218,-952594 748218,-1243574zm12802781 3547085c0,516153 -519629,1101531 -1558769,1756251 -928380,599223 -1600362,900631 -2016065,900631l-1371714 0c-789812,0 -1572613,-422596 -2348581,-1267847 -775908,-845192 -1163862,-1704229 -1163862,-2577170l62332 -1600362c110819,-748218 453762,-1520651 1028771,-2317415 575068,-796705 1257419,-1416725 2047231,-1860118 928321,-304825 1434105,-464190 1517234,-478035 277076,-13845 547319,-27690 810550,-41594l2701893 1039199c-138568,439917 -519570,782860 -1139648,1032306l-1808214 -741325 -1084210 0c-429489,0 -827871,235541 -1195028,710100 -367216,471142 -585437,942225 -654720,1416784l-62332 1936354c332515,2223858 1150017,3335816 2452448,3335816 110878,0 249445,-6952 415703,-20797 166258,-13845 284028,-20797 353312,-20797l2431709 -1683491c194007,-41535 339467,3476 436441,135092 97033,135092 145520,249445 145520,346419zm12387137 848668c0,166258 -55380,311777 -166258,436441 -332515,388013 -644293,661614 -935273,820978 -290980,159365 -706624,287504 -1246991,384478 -886786,-138509 -1302489,-207793 -1247050,-207793 -41594,0 -457238,110819 -1247050,332515 -152413,-27690 -346360,-83129 -581902,-166258 -124723,-152413 -187055,-290980 -187055,-415703 0,27749 346360,-464131 1039140,-1475640 692838,-1011450 1039199,-1725026 1039199,-2140729l0 -2473244c0,-415703 -297873,-831347 -890203,-1247050 -550795,-360264 -987236,-533474 -1305906,-519570 -1184718,55380 -2081873,533415 -2691524,1434046 -384478,568116 -578485,1115434 -578485,1641956l0 4904954c41594,124723 -103926,187055 -439917,187055l-1572672 62332c-207793,0 -412168,-96974 -606175,-290980l187055 -1537972c27690,-1579565 55439,-2979028 83129,-4198330 27749,-1025354 41594,-1607255 41594,-1745823 0,-332574 -83129,-1510282 -249445,-3533240l-374109 -1288644 1101589 -290921c415644,152413 665031,228590 748218,228590 -27749,0 325563,-48487 1059937,-145461 152413,152413 228648,325622 228648,519570 0,41594 -27749,103926 -83129,187055 -55439,83129 -83129,152413 -83129,207852l-41594 4177533c360264,-332515 990712,-796705 1891343,-1392511 845192,-415703 1634945,-623496 2369319,-623496 207852,0 464190,13845 769015,41535 457238,27749 969915,284087 1538030,769015 526522,443393 893679,886786 1101531,1330179 235541,512677 353312,1080734 353312,1704229 0,914535 -235541,1718133 -706683,2410971 -13845,27690 -207793,235541 -581902,623496 -290980,290980 -436500,505725 -436500,644293 0,96974 69284,214745 207852,353312 609651,124723 1094637,187055 1454902,187055 0,0 270183,-76177 810550,-228590 152413,27690 228590,138509 228590,332515z"/>
 </g>
</svg>
