<?xml version="1.0" encoding="UTF-8"?>
<!DOCTYPE svg PUBLIC "-//W3C//DTD SVG 1.1//EN" "http://www.w3.org/Graphics/SVG/1.1/DTD/svg11.dtd">
<!-- Creator: CorelDRAW Home & Student X6 -->
<svg xmlns="http://www.w3.org/2000/svg" xml:space="preserve" width="1476px" height="1476px" version="1.1" style="shape-rendering:geometricPrecision; text-rendering:geometricPrecision; image-rendering:optimizeQuality; fill-rule:evenodd; clip-rule:evenodd"
viewBox="0 0 154691297 154691297"
 xmlns:xlink="http://www.w3.org/1999/xlink">
 <defs>
  <style type="text/css">
   <![CDATA[
    .fil1 {fill:none}
    .fil0 {fill:white}
   ]]>
  </style>
 </defs>
 <g id="Warstwa_x0020_1">
  <metadata id="CorelCorpID_0Corel-Layer"/>
  <g id="_214846464">
   <g id="Page-1">
    <g id="Dribbble-Light-Preview">
     <g id="icons">
      <path id="reddit-_x005b__x0023_143_x005d_" class="fil0" d="M96088046 94345974c-4714991,0 -8668900,-3871985 -8668900,-8647615 0,-4781941 3953910,-8779412 8668900,-8779412 4708803,0 8526584,3997471 8526584,8779412 0,4775630 -3811594,8647615 -8526584,8647615m1200404 15977383c-4164290,4217256 -10692262,6269329 -19948990,6269329 -9262915,0 -15784700,-2052073 -19942802,-6269329 -903397,-916144 -903397,-2397220 0,-3319675 897210,-916144 2363683,-916144 3267080,0 3248517,3294677 8699839,4901115 16675722,4901115 7969696,0 13427205,-1606438 16681909,-4901115 897210,-916144 2363683,-916144 3267080,0 903397,922455 903397,2403531 0,3319675m-47217971 -24624998c0,-4775753 3947722,-8779412 8656525,-8779412 4708803,0 8526584,4003658 8526584,8779412 0,4775630 -3817781,8647615 -8526584,8647615 -4708803,0 -8656525,-3871985 -8656525,-8647615m89151688 -9507451c0,-7838146 -6286654,-14214026 -14015031,-14214026 -3564087,0 -6923982,1349279 -9498046,3765310 -9250540,-6105975 -21638219,-10053325 -35356243,-10593012l7567498 -23426574 19874738 4744320c6188,6451246 5179065,11691321 11539971,11691321 6360906,0 11539971,-5252574 11539971,-11703820 0,-6451246 -5179065,-11703820 -11539971,-11703820 -4764492,0 -8854530,2936907 -10618011,7122730 -4281855,-1022943 -19590106,-4681577 -23871961,-5704520l-9343354 28930119c-14237787,269905 -27139041,4198322 -36736089,10448840 -2543125,-2290669 -5834956,-3570894 -9287665,-3570894 -7722190,0 -14008844,6375880 -14008844,14214026 0,4976605 2561688,9538884 6657913,12099211 -3731154,22353387 22238421,41650570 54958724,41650570 32584175,0 58467122,-19127764 55014413,-41368165 4380858,-2491396 7121987,-7160351 7121987,-12381615z"/>
     </g>
    </g>
   </g>
  </g>
  <rect class="fil1" x="6" width="154691289" height="154691296"/>
 </g>
</svg>
