<?xml version="1.0" encoding="UTF-8"?>
<!DOCTYPE svg PUBLIC "-//W3C//DTD SVG 1.1//EN" "http://www.w3.org/Graphics/SVG/1.1/DTD/svg11.dtd">
<!-- Creator: CorelDRAW Home & Student X6 -->
<svg xmlns="http://www.w3.org/2000/svg" xml:space="preserve" width="72px" height="72px" version="1.1" style="shape-rendering:geometricPrecision; text-rendering:geometricPrecision; image-rendering:optimizeQuality; fill-rule:evenodd; clip-rule:evenodd"
viewBox="0 0 1271145 1271145"
 xmlns:xlink="http://www.w3.org/1999/xlink">
 <defs>
  <style type="text/css">
   <![CDATA[
    .fil0 {fill:none}
    .fil1 {fill:white}
   ]]>
  </style>
 </defs>
 <g id="Warstwa_x0020_1">
  <metadata id="CorelCorpID_0Corel-Layer"/>
  <rect class="fil0" width="1271145" height="1271145"/>
  <path class="fil1" d="M747805 287574c18885,6079 37080,13620 54482,22561l110237 -62315 110801 110801 -62315 110237c8920,17401 16482,35618 22561,54482l122019 33905 0 156676 -122019 33905c-6079,18885 -13620,37080 -22561,54482l62315 110237 -110801 110801 -110237 -62315c-17401,8920 -35618,16482 -54482,22561l-33905 122019 -156676 0 -33905 -122019c-18885,-6079 -37080,-13620 -54482,-22561l-110237 62315 -110801 -110801 62315 -110237c-8920,-17401 -16482,-35618 -22561,-54482l-122019 -33905 0 -156676 122019 -33905c6079,-18885 13620,-37080 22561,-54482l-62315 -110237 110801 -110801 110237 62315c17401,-8920 35618,-16482 54482,-22561l33905 -122019 156676 0 33905 122019zm-112243 139108c115376,0 208902,93525 208902,208902 0,115376 -93525,208902 -208902,208902 -115376,0 -208902,-93525 -208902,-208902 0,-115376 93525,-208902 208902,-208902z"/>
 </g>
</svg>
