<?xml version="1.0" encoding="UTF-8"?>
<!DOCTYPE svg PUBLIC "-//W3C//DTD SVG 1.1//EN" "http://www.w3.org/Graphics/SVG/1.1/DTD/svg11.dtd">
<!-- Creator: CorelDRAW Home & Student X6 -->
<svg xmlns="http://www.w3.org/2000/svg" xml:space="preserve" width="1476px" height="1476px" version="1.1" style="shape-rendering:geometricPrecision; text-rendering:geometricPrecision; image-rendering:optimizeQuality; fill-rule:evenodd; clip-rule:evenodd"
viewBox="0 0 154691297 154691297"
 xmlns:xlink="http://www.w3.org/1999/xlink">
 <defs>
  <style type="text/css">
   <![CDATA[
    .fil1 {fill:none}
    .fil0 {fill:white;fill-rule:nonzero}
   ]]>
  </style>
 </defs>
 <g id="Warstwa_x0020_1">
  <metadata id="CorelCorpID_0Corel-Layer"/>
  <g id="_214840944">
   <g>
    <path class="fil0" d="M120299709 37470192c-8010782,-3747984 -16576224,-6471913 -25531242,-8023033 -1099793,1988340 -2384597,4662767 -3270545,6790205 -9519207,-1431575 -18951045,-1431575 -28295389,0 -885700,-2127438 -2199710,-4801865 -3309280,-6790205 -8964670,1551121 -17540013,4284949 -25550795,8042834 -16157692,24416474 -20537807,48226559 -18347749,71698426 10716642,8002985 21102368,12864499 31312860,16045819 2520973,-3469664 4769442,-7157999 6706425,-11045082 -3689078,-1401751 -7222351,-3131571 -10560837,-5139835 885700,-656139 1752096,-1342225 2589037,-2047989 20362696,9524034 42487140,9524034 62606414,0 846842,705764 1713113,1391850 2589037,2047989 -3348262,2018041 -6891188,3747861 -10580266,5149735 1936983,3877183 4175675,7575418 6706425,11044959 10220268,-3181196 20615647,-8042586 31332289,-16055595 2569732,-27209952 -4389768,-50801241 -18396384,-71718226zm-63511667 57283177c-6112534,0 -11125398,-5706500 -11125398,-12655604 0,-6949104 4905818,-12665505 11125398,-12665505 6219951,0 11232692,5706253 11125646,12665505 9529,6949104 -4905694,12655604 -11125646,12655604zm41114719 0c-6112658,0 -11125522,-5706500 -11125522,-12655604 0,-6949104 4905694,-12665505 11125522,-12665505 6219704,0 11232568,5706253 11125522,12665505 0,6949104 -4905818,12655604 -11125522,12655604z"/>
   </g>
  </g>
  <rect class="fil1" x="6" width="154691289" height="154691296"/>
 </g>
</svg>
